<mxfile host="app.diagrams.net" modified="2022-09-06T11:55:35.008Z" agent="5.0 (X11)" etag="zHHt9DYS5beSG8Qle5j9" version="20.2.8" type="github">
  <diagram id="C5RBs43oDa-KdzZeNtuy" name="Page-1">
    <mxGraphModel dx="1422" dy="755" grid="1" gridSize="10" guides="1" tooltips="1" connect="1" arrows="1" fold="1" page="1" pageScale="1" pageWidth="827" pageHeight="1169" math="0" shadow="0">
      <root>
        <mxCell id="WIyWlLk6GJQsqaUBKTNV-0" />
        <mxCell id="WIyWlLk6GJQsqaUBKTNV-1" parent="WIyWlLk6GJQsqaUBKTNV-0" />
        <mxCell id="dtmNaNjIhoNiC98h7geO-1" value="Invocation" style="rounded=0;whiteSpace=wrap;html=1;" vertex="1" parent="WIyWlLk6GJQsqaUBKTNV-1">
          <mxGeometry x="60" y="70" width="120" height="60" as="geometry" />
        </mxCell>
        <mxCell id="dtmNaNjIhoNiC98h7geO-5" style="edgeStyle=orthogonalEdgeStyle;rounded=0;orthogonalLoop=1;jettySize=auto;html=1;exitX=0.5;exitY=1;exitDx=0;exitDy=0;entryX=0.5;entryY=0;entryDx=0;entryDy=0;startArrow=none;" edge="1" parent="WIyWlLk6GJQsqaUBKTNV-1" source="dtmNaNjIhoNiC98h7geO-6" target="dtmNaNjIhoNiC98h7geO-3">
          <mxGeometry relative="1" as="geometry" />
        </mxCell>
        <mxCell id="dtmNaNjIhoNiC98h7geO-2" value="&lt;div&gt;Alexa:&lt;/div&gt;&lt;div&gt;Kannst du Wimmeln?&lt;/div&gt;" style="rounded=0;whiteSpace=wrap;html=1;" vertex="1" parent="WIyWlLk6GJQsqaUBKTNV-1">
          <mxGeometry x="230" y="70" width="120" height="60" as="geometry" />
        </mxCell>
        <mxCell id="dtmNaNjIhoNiC98h7geO-3" value="Alexa: Welches Objekt soll ich als 1. fÃ¼r dich finden?" style="rounded=0;whiteSpace=wrap;html=1;" vertex="1" parent="WIyWlLk6GJQsqaUBKTNV-1">
          <mxGeometry x="230" y="220" width="120" height="60" as="geometry" />
        </mxCell>
        <mxCell id="dtmNaNjIhoNiC98h7geO-7" value="" style="endArrow=classic;html=1;rounded=0;exitX=1;exitY=0.5;exitDx=0;exitDy=0;" edge="1" parent="WIyWlLk6GJQsqaUBKTNV-1" source="dtmNaNjIhoNiC98h7geO-2">
          <mxGeometry width="50" height="50" relative="1" as="geometry">
            <mxPoint x="350" y="110" as="sourcePoint" />
            <mxPoint x="420" y="100" as="targetPoint" />
          </mxGeometry>
        </mxCell>
        <mxCell id="dtmNaNjIhoNiC98h7geO-9" value="nein" style="edgeLabel;html=1;align=center;verticalAlign=middle;resizable=0;points=[];" vertex="1" connectable="0" parent="dtmNaNjIhoNiC98h7geO-7">
          <mxGeometry x="-0.2857" relative="1" as="geometry">
            <mxPoint as="offset" />
          </mxGeometry>
        </mxCell>
        <mxCell id="dtmNaNjIhoNiC98h7geO-8" value="Alexa: Spielbeschreibung" style="rounded=0;whiteSpace=wrap;html=1;" vertex="1" parent="WIyWlLk6GJQsqaUBKTNV-1">
          <mxGeometry x="420" y="70" width="120" height="60" as="geometry" />
        </mxCell>
        <mxCell id="dtmNaNjIhoNiC98h7geO-6" value="ja" style="text;html=1;align=center;verticalAlign=middle;resizable=0;points=[];autosize=1;strokeColor=none;fillColor=none;" vertex="1" parent="WIyWlLk6GJQsqaUBKTNV-1">
          <mxGeometry x="275" y="160" width="30" height="30" as="geometry" />
        </mxCell>
        <mxCell id="dtmNaNjIhoNiC98h7geO-10" value="" style="edgeStyle=orthogonalEdgeStyle;rounded=0;orthogonalLoop=1;jettySize=auto;html=1;exitX=0.5;exitY=1;exitDx=0;exitDy=0;entryX=0.5;entryY=0;entryDx=0;entryDy=0;endArrow=none;" edge="1" parent="WIyWlLk6GJQsqaUBKTNV-1" source="dtmNaNjIhoNiC98h7geO-2" target="dtmNaNjIhoNiC98h7geO-6">
          <mxGeometry relative="1" as="geometry">
            <mxPoint x="290" y="130" as="sourcePoint" />
            <mxPoint x="290" y="220" as="targetPoint" />
          </mxGeometry>
        </mxCell>
        <mxCell id="dtmNaNjIhoNiC98h7geO-11" value="" style="endArrow=classic;html=1;rounded=0;exitX=0.5;exitY=1;exitDx=0;exitDy=0;entryX=1;entryY=0.5;entryDx=0;entryDy=0;" edge="1" parent="WIyWlLk6GJQsqaUBKTNV-1" source="dtmNaNjIhoNiC98h7geO-8" target="dtmNaNjIhoNiC98h7geO-3">
          <mxGeometry width="50" height="50" relative="1" as="geometry">
            <mxPoint x="260" y="350" as="sourcePoint" />
            <mxPoint x="310" y="300" as="targetPoint" />
            <Array as="points">
              <mxPoint x="480" y="250" />
            </Array>
          </mxGeometry>
        </mxCell>
        <mxCell id="dtmNaNjIhoNiC98h7geO-12" value="" style="endArrow=classic;html=1;rounded=0;exitX=1;exitY=0.5;exitDx=0;exitDy=0;" edge="1" parent="WIyWlLk6GJQsqaUBKTNV-1" source="dtmNaNjIhoNiC98h7geO-1" target="dtmNaNjIhoNiC98h7geO-2">
          <mxGeometry width="50" height="50" relative="1" as="geometry">
            <mxPoint x="200" y="120" as="sourcePoint" />
            <mxPoint x="250" y="70" as="targetPoint" />
          </mxGeometry>
        </mxCell>
        <mxCell id="dtmNaNjIhoNiC98h7geO-13" value="&lt;div&gt;User:&lt;/div&gt;&lt;div&gt;Finde mir object!&lt;br&gt;&lt;/div&gt;" style="rounded=0;whiteSpace=wrap;html=1;" vertex="1" parent="WIyWlLk6GJQsqaUBKTNV-1">
          <mxGeometry x="230" y="320" width="120" height="60" as="geometry" />
        </mxCell>
        <mxCell id="dtmNaNjIhoNiC98h7geO-14" value="DB Objekte" style="shape=cylinder3;whiteSpace=wrap;html=1;boundedLbl=1;backgroundOutline=1;size=15;" vertex="1" parent="WIyWlLk6GJQsqaUBKTNV-1">
          <mxGeometry x="85" y="510" width="70" height="100" as="geometry" />
        </mxCell>
        <mxCell id="dtmNaNjIhoNiC98h7geO-15" value="" style="endArrow=classic;html=1;rounded=0;exitX=0.5;exitY=1;exitDx=0;exitDy=0;entryX=0.5;entryY=0;entryDx=0;entryDy=0;" edge="1" parent="WIyWlLk6GJQsqaUBKTNV-1" source="dtmNaNjIhoNiC98h7geO-3" target="dtmNaNjIhoNiC98h7geO-13">
          <mxGeometry width="50" height="50" relative="1" as="geometry">
            <mxPoint x="260" y="350" as="sourcePoint" />
            <mxPoint x="310" y="300" as="targetPoint" />
          </mxGeometry>
        </mxCell>
        <mxCell id="dtmNaNjIhoNiC98h7geO-16" value="" style="endArrow=classic;html=1;rounded=0;exitX=0.5;exitY=1;exitDx=0;exitDy=0;" edge="1" parent="WIyWlLk6GJQsqaUBKTNV-1" source="dtmNaNjIhoNiC98h7geO-13">
          <mxGeometry width="50" height="50" relative="1" as="geometry">
            <mxPoint x="370" y="440" as="sourcePoint" />
            <mxPoint x="290" y="410" as="targetPoint" />
          </mxGeometry>
        </mxCell>
        <mxCell id="dtmNaNjIhoNiC98h7geO-19" value="" style="endArrow=classic;html=1;rounded=0;exitX=0;exitY=0.5;exitDx=0;exitDy=0;entryX=0.5;entryY=0;entryDx=0;entryDy=0;entryPerimeter=0;exitPerimeter=0;" edge="1" parent="WIyWlLk6GJQsqaUBKTNV-1" source="dtmNaNjIhoNiC98h7geO-25" target="dtmNaNjIhoNiC98h7geO-14">
          <mxGeometry width="50" height="50" relative="1" as="geometry">
            <mxPoint x="240" y="475" as="sourcePoint" />
            <mxPoint x="310" y="300" as="targetPoint" />
            <Array as="points">
              <mxPoint x="120" y="460" />
            </Array>
          </mxGeometry>
        </mxCell>
        <mxCell id="dtmNaNjIhoNiC98h7geO-20" value="suchen in " style="edgeLabel;html=1;align=center;verticalAlign=middle;resizable=0;points=[];" vertex="1" connectable="0" parent="dtmNaNjIhoNiC98h7geO-19">
          <mxGeometry x="-0.0323" relative="1" as="geometry">
            <mxPoint as="offset" />
          </mxGeometry>
        </mxCell>
        <mxCell id="dtmNaNjIhoNiC98h7geO-21" value="" style="endArrow=classic;html=1;rounded=0;exitX=0.5;exitY=1;exitDx=0;exitDy=0;exitPerimeter=0;" edge="1" parent="WIyWlLk6GJQsqaUBKTNV-1" source="dtmNaNjIhoNiC98h7geO-14" target="dtmNaNjIhoNiC98h7geO-22">
          <mxGeometry width="50" height="50" relative="1" as="geometry">
            <mxPoint x="260" y="350" as="sourcePoint" />
            <mxPoint x="120" y="670" as="targetPoint" />
          </mxGeometry>
        </mxCell>
        <mxCell id="dtmNaNjIhoNiC98h7geO-22" value="Auswahl: 1. Objekt, das zu dieser Beschreibung passt." style="rounded=0;whiteSpace=wrap;html=1;" vertex="1" parent="WIyWlLk6GJQsqaUBKTNV-1">
          <mxGeometry x="60" y="640" width="120" height="60" as="geometry" />
        </mxCell>
        <mxCell id="dtmNaNjIhoNiC98h7geO-27" value="" style="edgeStyle=orthogonalEdgeStyle;rounded=0;orthogonalLoop=1;jettySize=auto;html=1;exitX=1;exitY=0.5;exitDx=0;exitDy=0;entryX=0.5;entryY=0;entryDx=0;entryDy=0;" edge="1" parent="WIyWlLk6GJQsqaUBKTNV-1" source="dtmNaNjIhoNiC98h7geO-22" target="dtmNaNjIhoNiC98h7geO-26">
          <mxGeometry relative="1" as="geometry">
            <mxPoint x="350" y="670" as="sourcePoint" />
          </mxGeometry>
        </mxCell>
        <mxCell id="dtmNaNjIhoNiC98h7geO-25" value="&lt;div&gt;Trigger: &lt;br&gt;&lt;/div&gt;&lt;div&gt;location, objectname, &lt;br&gt;&lt;/div&gt;&lt;div&gt;farbe&lt;/div&gt;" style="shape=note;whiteSpace=wrap;html=1;backgroundOutline=1;darkOpacity=0.05;" vertex="1" parent="WIyWlLk6GJQsqaUBKTNV-1">
          <mxGeometry x="250" y="410" width="80" height="100" as="geometry" />
        </mxCell>
        <mxCell id="dtmNaNjIhoNiC98h7geO-26" value="&lt;div&gt;Alexa: &lt;br&gt;&lt;/div&gt;&lt;div&gt;Hast du dieses Objekt gemeint?&lt;/div&gt;" style="rhombus;whiteSpace=wrap;html=1;rounded=0;" vertex="1" parent="WIyWlLk6GJQsqaUBKTNV-1">
          <mxGeometry x="275" y="605" width="140" height="130" as="geometry" />
        </mxCell>
        <mxCell id="dtmNaNjIhoNiC98h7geO-28" value="ja" style="endArrow=classic;html=1;rounded=0;exitX=1;exitY=0.5;exitDx=0;exitDy=0;" edge="1" parent="WIyWlLk6GJQsqaUBKTNV-1" source="dtmNaNjIhoNiC98h7geO-26">
          <mxGeometry width="50" height="50" relative="1" as="geometry">
            <mxPoint x="420" y="655" as="sourcePoint" />
            <mxPoint x="470" y="670" as="targetPoint" />
            <Array as="points">
              <mxPoint x="440" y="670" />
            </Array>
          </mxGeometry>
        </mxCell>
        <mxCell id="dtmNaNjIhoNiC98h7geO-47" value="" style="edgeStyle=orthogonalEdgeStyle;rounded=0;orthogonalLoop=1;jettySize=auto;html=1;" edge="1" parent="WIyWlLk6GJQsqaUBKTNV-1" source="dtmNaNjIhoNiC98h7geO-29" target="dtmNaNjIhoNiC98h7geO-46">
          <mxGeometry relative="1" as="geometry" />
        </mxCell>
        <mxCell id="dtmNaNjIhoNiC98h7geO-29" value="&lt;div&gt;Alexa: &lt;br&gt;&lt;/div&gt;&lt;div&gt;Juhu! Jetzt bis du an der Reihe!&lt;/div&gt;" style="rounded=0;whiteSpace=wrap;html=1;" vertex="1" parent="WIyWlLk6GJQsqaUBKTNV-1">
          <mxGeometry x="470" y="640" width="120" height="60" as="geometry" />
        </mxCell>
        <mxCell id="dtmNaNjIhoNiC98h7geO-30" value="Speicher gebrauchte Objekte + Zeit" style="shape=dataStorage;whiteSpace=wrap;html=1;fixedSize=1;" vertex="1" parent="WIyWlLk6GJQsqaUBKTNV-1">
          <mxGeometry x="480" y="545" width="100" height="80" as="geometry" />
        </mxCell>
        <mxCell id="dtmNaNjIhoNiC98h7geO-32" value="" style="endArrow=classic;html=1;rounded=0;exitX=0.5;exitY=0;exitDx=0;exitDy=0;entryX=0.5;entryY=1;entryDx=0;entryDy=0;" edge="1" parent="WIyWlLk6GJQsqaUBKTNV-1" source="dtmNaNjIhoNiC98h7geO-29" target="dtmNaNjIhoNiC98h7geO-30">
          <mxGeometry width="50" height="50" relative="1" as="geometry">
            <mxPoint x="310" y="500" as="sourcePoint" />
            <mxPoint x="360" y="450" as="targetPoint" />
          </mxGeometry>
        </mxCell>
        <mxCell id="dtmNaNjIhoNiC98h7geO-33" value="Exit" style="rounded=0;whiteSpace=wrap;html=1;" vertex="1" parent="WIyWlLk6GJQsqaUBKTNV-1">
          <mxGeometry x="285" y="780" width="120" height="60" as="geometry" />
        </mxCell>
        <mxCell id="dtmNaNjIhoNiC98h7geO-34" value="&lt;div&gt;Statistik:&lt;/div&gt;&lt;div&gt;gefundene Objekte&lt;/div&gt;&lt;div&gt;Durchschnittszeit&lt;br&gt;&lt;/div&gt;" style="rounded=0;whiteSpace=wrap;html=1;" vertex="1" parent="WIyWlLk6GJQsqaUBKTNV-1">
          <mxGeometry x="285" y="880" width="120" height="60" as="geometry" />
        </mxCell>
        <mxCell id="dtmNaNjIhoNiC98h7geO-35" value="&lt;div&gt;Alexa: &lt;br&gt;&lt;/div&gt;&lt;div&gt;TschÃ¼ss und bis zum nÃ¤chsten Mal!&lt;/div&gt;" style="rounded=0;whiteSpace=wrap;html=1;" vertex="1" parent="WIyWlLk6GJQsqaUBKTNV-1">
          <mxGeometry x="285" y="970" width="120" height="60" as="geometry" />
        </mxCell>
        <mxCell id="dtmNaNjIhoNiC98h7geO-36" value="" style="endArrow=classic;html=1;rounded=0;exitX=0;exitY=0.5;exitDx=0;exitDy=0;entryX=0.5;entryY=0;entryDx=0;entryDy=0;" edge="1" parent="WIyWlLk6GJQsqaUBKTNV-1" source="dtmNaNjIhoNiC98h7geO-26" target="dtmNaNjIhoNiC98h7geO-37">
          <mxGeometry width="50" height="50" relative="1" as="geometry">
            <mxPoint x="310" y="710" as="sourcePoint" />
            <mxPoint x="190" y="760" as="targetPoint" />
            <Array as="points">
              <mxPoint x="275" y="740" />
              <mxPoint x="120" y="740" />
            </Array>
          </mxGeometry>
        </mxCell>
        <mxCell id="dtmNaNjIhoNiC98h7geO-38" value="nein" style="edgeLabel;html=1;align=center;verticalAlign=middle;resizable=0;points=[];" vertex="1" connectable="0" parent="dtmNaNjIhoNiC98h7geO-36">
          <mxGeometry x="0.0939" y="2" relative="1" as="geometry">
            <mxPoint as="offset" />
          </mxGeometry>
        </mxCell>
        <mxCell id="dtmNaNjIhoNiC98h7geO-39" style="edgeStyle=orthogonalEdgeStyle;rounded=0;orthogonalLoop=1;jettySize=auto;html=1;exitX=0;exitY=0.5;exitDx=0;exitDy=0;entryX=0;entryY=0.5;entryDx=0;entryDy=0;" edge="1" parent="WIyWlLk6GJQsqaUBKTNV-1" source="dtmNaNjIhoNiC98h7geO-37" target="dtmNaNjIhoNiC98h7geO-13">
          <mxGeometry relative="1" as="geometry" />
        </mxCell>
        <mxCell id="dtmNaNjIhoNiC98h7geO-37" value="&lt;div&gt;Alexa:&lt;/div&gt;&lt;div&gt;Bitte beschreibe mir das Objekt genauer.&lt;/div&gt;" style="rounded=0;whiteSpace=wrap;html=1;" vertex="1" parent="WIyWlLk6GJQsqaUBKTNV-1">
          <mxGeometry x="60" y="780" width="120" height="60" as="geometry" />
        </mxCell>
        <mxCell id="dtmNaNjIhoNiC98h7geO-46" value="&lt;div&gt;&lt;br&gt;&lt;/div&gt;&lt;div&gt;Auswahl Objekt aus Container&lt;br&gt;&lt;/div&gt;" style="whiteSpace=wrap;html=1;rounded=0;" vertex="1" parent="WIyWlLk6GJQsqaUBKTNV-1">
          <mxGeometry x="650" y="640" width="120" height="60" as="geometry" />
        </mxCell>
        <mxCell id="dtmNaNjIhoNiC98h7geO-48" value="" style="endArrow=classic;html=1;rounded=0;exitX=1;exitY=0.5;exitDx=0;exitDy=0;exitPerimeter=0;entryX=0.5;entryY=0;entryDx=0;entryDy=0;" edge="1" parent="WIyWlLk6GJQsqaUBKTNV-1" source="dtmNaNjIhoNiC98h7geO-14" target="dtmNaNjIhoNiC98h7geO-46">
          <mxGeometry width="50" height="50" relative="1" as="geometry">
            <mxPoint x="580" y="770" as="sourcePoint" />
            <mxPoint x="630" y="720" as="targetPoint" />
            <Array as="points">
              <mxPoint x="240" y="560" />
              <mxPoint x="240" y="520" />
              <mxPoint x="710" y="520" />
              <mxPoint x="710" y="570" />
            </Array>
          </mxGeometry>
        </mxCell>
      </root>
    </mxGraphModel>
  </diagram>
</mxfile>
